# xmcd
#
# Track frame offsets:
#	150
#	9917
#	25488
#	40724
#	50942
#	67322
#	79010
#	91651
#	104270
#	119241
#	133376
#	143110
#	155748
#	168202
#	180228
#	193201
#	208353
#	220924
#	230715
#	243311
#	252863
#	270950
#	280249
#
# Disc length: 3854 seconds
# Revision: 0
# Processed by: cddbd v1.5.2PL0 Copyright (c) Steve Scherf et al.
# Submitted via: dBpowerAMP V12.0
#
DISCID=5a0f0c17
DTITLE=Kirk Sutphin and Riley Baugus - Long-Time Piedmont Pals
DYEAR=2007
DGENRE=Country
TTITLE0=Silly Bill
TTITLE1=Suzanna Gal
TTITLE2=Lonesome Road
TTITLE3=Last of Callahan
TTITLE4=Riley and Spencer
TTITLE5=Evening Star Waltz
TTITLE6=Roving Cowboy
TTITLE7=Paddy on the Turnpike
TTITLE8=Fortune
TTITLE9=Drunkard's Dream
TTITLE10=Liberty
TTITLE11=Cripple Creek
TTITLE12=A Married Man Blues
TTITLE13=Pretty Little Shoes
TTITLE14=John Hardy
TTITLE15=As Time Draws Near
TTITLE16=Big-Eyed Rabbit
TTITLE17=John Brown's Dream
TTITLE18=Birdie
TTITLE19=West Virginia Farewell
TTITLE20=Wild Bill Jones
TTITLE21=Forked Deer
TTITLE22=Molly Put the Kettle On
EXTD=
EXTT0=
EXTT1=
EXTT2=
EXTT3=
EXTT4=
EXTT5=
EXTT6=
EXTT7=
EXTT8=
EXTT9=
EXTT10=
EXTT11=
EXTT12=
EXTT13=
EXTT14=
EXTT15=
EXTT16=
EXTT17=
EXTT18=
EXTT19=
EXTT20=
EXTT21=
EXTT22=
PLAYORDER=
